<svg width="40" height="40" viewBox="0 0 40 40" fill="none" xmlns="http://www.w3.org/2000/svg">
<g clip-path="url(#clip0_1693_496)">
<path d="M28 0H12C5.37258 0 0 5.37258 0 12V28C0 34.6274 5.37258 40 12 40H28C34.6274 40 40 34.6274 40 28V12C40 5.37258 34.6274 0 28 0Z" fill="url(#paint0_linear_1693_496)"/>
<path d="M19.9992 9C20.5062 9.00033 21.0056 9.11677 21.4551 9.33944C21.9045 9.5621 22.2907 9.88441 22.5809 10.279L22.6947 10.443L31.5787 24.517C31.8449 24.955 31.9897 25.4499 31.9995 25.9555C32.0092 26.461 31.8837 26.9607 31.6346 27.4077C31.3856 27.8547 31.0211 28.2344 30.5753 28.5113C30.1294 28.7882 29.6169 28.9532 29.0856 28.991L28.8748 29H11.113C10.5811 28.994 10.0594 28.8602 9.59665 28.6112C9.13389 28.3622 8.7451 28.006 8.46652 27.5759C8.18795 27.1458 8.02867 26.6558 8.00352 26.1515C7.97838 25.6473 8.08819 25.1451 8.32273 24.692L8.42916 24.503L17.3069 10.438C17.5877 9.99901 17.9829 9.63609 18.4545 9.38421C18.9261 9.13234 19.4581 9.00002 19.9992 9ZM20.073 23L19.9391 23.007C19.683 23.0359 19.447 23.153 19.2757 23.336C19.1045 23.519 19.0099 23.7552 19.0099 24C19.0099 24.2448 19.1045 24.481 19.2757 24.664C19.447 24.847 19.683 24.9641 19.9391 24.993L20.0624 25L20.1962 24.993C20.4524 24.9641 20.6884 24.847 20.8597 24.664C21.0309 24.481 21.1255 24.2448 21.1255 24C21.1255 23.7552 21.0309 23.519 20.8597 23.336C20.6884 23.153 20.4524 23.0359 20.1962 23.007L20.073 23ZM20.0624 15C19.8043 15 19.5552 15.09 19.3624 15.2527C19.1695 15.4155 19.0463 15.6397 19.0161 15.883L19.0087 16V20L19.0161 20.117C19.0465 20.36 19.1699 20.5841 19.3627 20.7466C19.5556 20.9091 19.8045 20.9989 20.0624 20.9989C20.3203 20.9989 20.5693 20.9091 20.7621 20.7466C20.955 20.5841 21.0783 20.36 21.1088 20.117L21.1162 20V16L21.1088 15.883C21.0786 15.6397 20.9554 15.4155 20.7625 15.2527C20.5696 15.09 20.3205 15 20.0624 15Z" fill="white"/>
</g>
<defs>
<linearGradient id="paint0_linear_1693_496" x1="20" y1="0" x2="20" y2="40" gradientUnits="userSpaceOnUse">
<stop stop-color="#F3B67A"/>
<stop offset="1" stop-color="#805540"/>
</linearGradient>
<clipPath id="clip0_1693_496">
<rect width="40" height="40" fill="white"/>
</clipPath>
</defs>
</svg>
