<svg width="40" height="40" viewBox="0 0 40 40" fill="none" xmlns="http://www.w3.org/2000/svg">
<g clip-path="url(#clip0_1693_510)">
<path d="M30 0H10C4.47715 0 0 4.47715 0 10V30C0 35.5228 4.47715 40 10 40H30C35.5228 40 40 35.5228 40 30V10C40 4.47715 35.5228 0 30 0Z" fill="url(#paint0_linear_1693_510)"/>
<path d="M25.0002 11.3399C26.5085 12.2107 27.7632 13.4604 28.64 14.9652C29.5169 16.47 29.9856 18.1777 29.9997 19.9192C30.0137 21.6608 29.5727 23.3758 28.7203 24.8946C27.8678 26.4133 26.6334 27.6831 25.1394 28.5782C23.6454 29.4733 21.9435 29.9627 20.2022 29.998C18.4609 30.0332 16.7406 29.6131 15.2116 28.7791C13.6826 27.9452 12.3979 26.7264 11.4847 25.2434C10.5715 23.7604 10.0614 22.0646 10.005 20.3239L10 19.9999L10.005 19.6759C10.061 17.9489 10.5636 16.2659 11.4637 14.7909C12.3638 13.3159 13.6307 12.0993 15.141 11.2598C16.6512 10.4202 18.3532 9.98632 20.0811 10.0003C21.809 10.0144 23.5038 10.4759 25.0002 11.3399ZM23.7072 17.2929C23.535 17.1207 23.3059 17.0173 23.0628 17.002C22.8198 16.9867 22.5796 17.0606 22.3872 17.2099L22.2932 17.2929L19.0001 20.5849L17.7071 19.2929L17.6131 19.2099C17.4207 19.0607 17.1805 18.9869 16.9375 19.0022C16.6945 19.0176 16.4655 19.121 16.2933 19.2932C16.1212 19.4653 16.0178 19.6943 16.0024 19.9373C15.9871 20.1803 16.0609 20.4205 16.2101 20.6129L16.2931 20.7069L18.2931 22.7069L18.3871 22.7899C18.5625 22.926 18.7781 22.9998 19.0001 22.9998C19.2221 22.9998 19.4377 22.926 19.6131 22.7899L19.7071 22.7069L23.7072 18.7069L23.7902 18.6129C23.9394 18.4205 24.0133 18.1802 23.9981 17.9372C23.9828 17.6942 23.8793 17.4651 23.7072 17.2929Z" fill="white"/>
</g>
<defs>
<linearGradient id="paint0_linear_1693_510" x1="20" y1="0" x2="20" y2="40" gradientUnits="userSpaceOnUse">
<stop stop-color="#66CCBA"/>
<stop offset="1" stop-color="#40807A"/>
</linearGradient>
<clipPath id="clip0_1693_510">
<rect width="40" height="40" fill="white"/>
</clipPath>
</defs>
</svg>
