<svg width="40" height="40" viewBox="0 0 40 40" fill="none" xmlns="http://www.w3.org/2000/svg">
<g clip-path="url(#clip0_1693_504)">
<path d="M30 0H10C4.47715 0 0 4.47715 0 10V30C0 35.5228 4.47715 40 10 40H30C35.5228 40 40 35.5228 40 30V10C40 4.47715 35.5228 0 30 0Z" fill="url(#paint0_linear_1693_504)"/>
<path d="M20 10C25.523 10 30 14.4752 30 19.996C30.0021 22.6205 28.9715 25.1405 27.1309 27.0119C25.2902 28.8834 22.7871 29.9562 20.162 29.9987C17.5369 30.0412 15.0003 29.05 13.1 27.2392C11.1997 25.4283 10.088 22.943 10.005 20.3199L10 19.996L10.004 19.7162C10.152 14.3253 14.57 10 20 10ZM20.01 22.9949L19.883 23.0019C19.6399 23.0308 19.4159 23.1478 19.2534 23.3307C19.0909 23.5136 19.0011 23.7498 19.0011 23.9945C19.0011 24.2391 19.0909 24.4753 19.2534 24.6582C19.4159 24.8412 19.6399 24.9582 19.883 24.9871L20 24.9941L20.127 24.9871C20.37 24.9582 20.5941 24.8412 20.7566 24.6582C20.9191 24.4753 21.0089 24.2391 21.0089 23.9945C21.0089 23.7498 20.9191 23.5136 20.7566 23.3307C20.5941 23.1478 20.37 23.0308 20.127 23.0019L20.01 22.9949ZM20 14.998C19.7551 14.9981 19.5187 15.0879 19.3356 15.2506C19.1526 15.4133 19.0357 15.6375 19.007 15.8807L19 15.9976V19.996L19.007 20.113C19.0359 20.356 19.153 20.5799 19.336 20.7423C19.519 20.9048 19.7552 20.9945 20 20.9945C20.2448 20.9945 20.481 20.9048 20.664 20.7423C20.847 20.5799 20.9641 20.356 20.993 20.113L21 19.996V15.9976L20.993 15.8807C20.9643 15.6375 20.8474 15.4133 20.6644 15.2506C20.4813 15.0879 20.2449 14.9981 20 14.998Z" fill="white"/>
</g>
<defs>
<linearGradient id="paint0_linear_1693_504" x1="20" y1="0" x2="20" y2="40" gradientUnits="userSpaceOnUse">
<stop stop-color="#CC3629"/>
<stop offset="1" stop-color="#80221A"/>
</linearGradient>
<clipPath id="clip0_1693_504">
<rect width="40" height="40" fill="white"/>
</clipPath>
</defs>
</svg>
