<svg width="80" height="80" viewBox="0 0 80 80" fill="none" xmlns="http://www.w3.org/2000/svg">
<g clip-path="url(#clip0_1693_524)">
<path d="M68 0H12C5.37258 0 0 5.37258 0 12V68C0 74.6274 5.37258 80 12 80H68C74.6274 80 80 74.6274 80 68V12C80 5.37258 74.6274 0 68 0Z" fill="url(#paint0_linear_1693_524)"/>
<path d="M40 16C53.2552 16 64 26.7406 64 39.9905C64.005 46.2892 61.5317 52.3371 57.1141 56.8286C52.6966 61.3201 46.6892 63.8948 40.3889 63.9968C34.0885 64.0989 28.0008 61.7201 23.44 57.374C18.8792 53.028 16.2112 47.0633 16.012 40.7678L16 39.9905L16.0096 39.3188C16.3648 26.3807 26.968 16 40 16ZM40 37.5915H37.6L37.3192 37.6083C36.7359 37.6776 36.1983 37.9584 35.8082 38.3975C35.4181 38.8365 35.2027 39.4033 35.2027 39.9905C35.2027 40.5777 35.4181 41.1445 35.8082 41.5836C36.1983 42.0226 36.7359 42.3034 37.3192 42.3728L37.6 42.3896V49.5867L37.6168 49.8674C37.68 50.4029 37.9218 50.9015 38.3032 51.2828C38.6847 51.6641 39.1835 51.9058 39.7192 51.969L40 51.9858H42.4L42.6808 51.969C43.2165 51.9058 43.7153 51.6641 44.0968 51.2828C44.4782 50.9015 44.72 50.4029 44.7832 49.8674L44.8 49.5867L44.7832 49.306C44.7258 48.8166 44.519 48.3566 44.191 47.9888C43.8629 47.6209 43.4295 47.363 42.9496 47.25L42.6808 47.2021L42.4 47.1877V39.9905L42.3832 39.7098C42.32 39.1743 42.0782 38.6757 41.6968 38.2944C41.3153 37.9131 40.8165 37.6714 40.2808 37.6083L40 37.5915ZM40.024 30.3943L39.7192 30.4111C39.1359 30.4805 38.5983 30.7613 38.2082 31.2003C37.8181 31.6394 37.6027 32.2062 37.6027 32.7934C37.6027 33.3806 37.8181 33.9474 38.2082 34.3864C38.5983 34.8255 39.1359 35.1063 39.7192 35.1756L40 35.1924L40.3048 35.1756C40.8881 35.1063 41.4257 34.8255 41.8158 34.3864C42.2059 33.9474 42.4213 33.3806 42.4213 32.7934C42.4213 32.2062 42.2059 31.6394 41.8158 31.2003C41.4257 30.7613 40.8881 30.4805 40.3048 30.4111L40.024 30.3943Z" fill="white"/>
</g>
<defs>
<linearGradient id="paint0_linear_1693_524" x1="40" y1="0" x2="40" y2="80" gradientUnits="userSpaceOnUse">
<stop stop-color="#CCCCCC"/>
<stop offset="1" stop-color="#808080"/>
</linearGradient>
<clipPath id="clip0_1693_524">
<rect width="80" height="80" fill="white"/>
</clipPath>
</defs>
</svg>
