<svg width="140" height="140" viewBox="0 0 140 140" fill="none" xmlns="http://www.w3.org/2000/svg">
<rect width="140" height="140" rx="14" fill="url(#paint0_linear_1694_530)"/>
<path d="M37.0682 94H26.5227L42.5909 47.4545H55.2727L71.3182 94H60.7727L49.1136 58.0909H48.75L37.0682 94ZM36.4091 75.7045H61.3182V83.3864H36.4091V75.7045Z" fill="white"/>
<path d="M75.6405 94V47.4545H94.2768C97.7011 47.4545 100.557 47.9621 102.845 48.9773C105.133 49.9924 106.853 51.4015 108.004 53.2045C109.156 54.9924 109.731 57.053 109.731 59.3864C109.731 61.2045 109.368 62.803 108.64 64.1818C107.913 65.5455 106.913 66.6667 105.64 67.5455C104.383 68.4091 102.943 69.0227 101.322 69.3864V69.8409C103.095 69.9167 104.754 70.4167 106.3 71.3409C107.86 72.2652 109.125 73.5606 110.095 75.2273C111.065 76.8788 111.55 78.8485 111.55 81.1364C111.55 83.6061 110.936 85.8106 109.709 87.75C108.497 89.6742 106.701 91.197 104.322 92.3182C101.943 93.4394 99.0117 94 95.5268 94H75.6405ZM85.4814 85.9545H93.5041C96.2465 85.9545 98.2465 85.4318 99.5041 84.3864C100.762 83.3258 101.39 81.9167 101.39 80.1591C101.39 78.8712 101.08 77.7348 100.459 76.75C99.8374 75.7652 98.9511 74.9924 97.7995 74.4318C96.6632 73.8712 95.3071 73.5909 93.7314 73.5909H85.4814V85.9545ZM85.4814 66.9318H92.7768C94.1253 66.9318 95.3223 66.697 96.3677 66.2273C97.4283 65.7424 98.2617 65.0606 98.8677 64.1818C99.4889 63.303 99.7995 62.25 99.7995 61.0227C99.7995 59.3409 99.2011 57.9848 98.0041 56.9545C96.8223 55.9242 95.1405 55.4091 92.9586 55.4091H85.4814V66.9318Z" fill="#13BFBF"/>
<defs>
<linearGradient id="paint0_linear_1694_530" x1="0" y1="0" x2="140" y2="140" gradientUnits="userSpaceOnUse">
<stop stop-color="#104040"/>
<stop offset="0.4" stop-color="#0D0D0D"/>
<stop offset="0.5" stop-color="#0D0D0D"/>
<stop offset="0.6" stop-color="#0D0D0D"/>
<stop offset="1" stop-color="#402410"/>
</linearGradient>
</defs>
</svg>
